<svg id="Camada_1" data-name="Camada 1" xmlns="http://www.w3.org/2000/svg" xmlns:xlink="http://www.w3.org/1999/xlink" viewBox="0 0 152.84 48.08"><defs><style>.cls-1{fill:none;}.cls-2{fill:#fff;}.cls-3{fill:#0cb49a;}.cls-4{clip-path:url(#clip-path);}.cls-5{fill:#333;}</style><clipPath id="clip-path"><rect class="cls-1" x="-0.16" y="57.74" width="48" height="48"/></clipPath></defs><title>Logo-brancaCatarco</title><path class="cls-2" d="M57.68,32.51a6.1,6.1,0,0,1-1.53-4.4V17.37a8.38,8.38,0,0,1,1.38-5.24,5.19,5.19,0,0,1,4.35-1.77A6,6,0,0,1,66,11.78a5.17,5.17,0,0,1,1.57,4.07v4H63V16.42A2.85,2.85,0,0,0,62.72,15a.94.94,0,0,0-.84-.38.89.89,0,0,0-.86.44,2.82,2.82,0,0,0-.23,1.27v11.7a2.54,2.54,0,0,0,.27,1.34.9.9,0,0,0,.82.42c.72,0,1.08-.58,1.08-1.76V23.85h4.7v4.4c0,3.91-2,5.86-5.89,5.86A5.41,5.41,0,0,1,57.68,32.51Z"/><path class="cls-2" d="M70.62,33.89l2.25-23.31h7.9L83,33.89H78.57l-.33-3.77H75.42l-.27,3.77Zm5.15-7.49h2.12l-1-11.86h-.22Z"/><path class="cls-2" d="M87.39,33.89V15.06H84.62V10.58H94.83v4.48H92.06V33.89Z"/><path class="cls-2" d="M96.48,33.89l2.25-23.31h7.9l2.23,23.31h-4.43l-.32-3.77h-2.82L101,33.89Zm5.16-7.49h2.12l-1-11.86h-.21Z"/><path class="cls-2" d="M112,10.58h7.17a4,4,0,0,1,2.64.78,3.72,3.72,0,0,1,1.26,2.17,15.93,15.93,0,0,1,.33,3.57,7.39,7.39,0,0,1-.52,3.09,2.9,2.9,0,0,1-1.79,1.55,2.15,2.15,0,0,1,1.54,1.05,4.78,4.78,0,0,1,.47,2.28l0,8.82h-4.56V24.78c0-.66-.13-1.07-.38-1.25a2.57,2.57,0,0,0-1.39-.27V33.89H112Zm5.86,8.63c.65,0,1-.7,1-2.11a9.29,9.29,0,0,0-.08-1.39,1.09,1.09,0,0,0-.3-.64,1,1,0,0,0-.62-.17h-1.09v4.31Z"/><path class="cls-2" d="M128.1,32.51a6.1,6.1,0,0,1-1.53-4.4V17.37A8.38,8.38,0,0,1,128,12.13a5.17,5.17,0,0,1,4.34-1.77,6,6,0,0,1,4.16,1.42A5.2,5.2,0,0,1,138,15.85v4h-4.64V16.42a2.71,2.71,0,0,0-.25-1.39.92.92,0,0,0-.84-.38.88.88,0,0,0-.85.44,2.69,2.69,0,0,0-.23,1.27v11.7a2.54,2.54,0,0,0,.27,1.34.9.9,0,0,0,.81.42c.73,0,1.09-.58,1.09-1.76V23.85h4.69v4.4q0,5.86-5.89,5.86A5.37,5.37,0,0,1,128.1,32.51Z"/><path class="cls-2" d="M142.67,32.39a7.24,7.24,0,0,1-1.47-4.85V16.44a6.33,6.33,0,0,1,1.47-4.54,6.73,6.73,0,0,1,8.57,0,6.33,6.33,0,0,1,1.47,4.54v11.1a7.24,7.24,0,0,1-1.47,4.86,6.21,6.21,0,0,1-8.57,0Zm5.13-3.11a4.36,4.36,0,0,0,.21-1.52V16.36a3.07,3.07,0,0,0-.2-1.23.8.8,0,0,0-.83-.48c-.78,0-1.16.59-1.16,1.77V27.79a3.76,3.76,0,0,0,.24,1.52.9.9,0,0,0,.9.51A.83.83,0,0,0,147.8,29.28Z"/><path class="cls-2" d="M47,21.26,26.91,1.19a3.94,3.94,0,0,0-5.56,0L1.28,21.26a3.94,3.94,0,0,0,0,5.56L21.35,46.89a3.92,3.92,0,0,0,5.56,0L47,26.82A3.92,3.92,0,0,0,47,21.26ZM24.53,36.2h-.05a12.07,12.07,0,0,0,2.77-.32l.2,0,.32-.09.23-.07.14,0c.38-.12.76-.25,1.13-.4A11.93,11.93,0,0,1,24.53,36.2Zm9.73-15.66a22.06,22.06,0,0,1-2.54.62A7.8,7.8,0,1,0,18.43,29a18.21,18.21,0,0,0-1.13,4.75A12,12,0,1,1,35.76,19.9,13.52,13.52,0,0,1,34.26,20.54Z"/><path class="cls-3" d="M37.53,19.54s-.11,1-.71,4.2c-.12.64-.23,1.27-.36,1.9a16.21,16.21,0,0,1-1.31,4.16,11.14,11.14,0,0,1-2.29,3.11,10.87,10.87,0,0,1-4.76,2.74l-.13,0-.22.07-.32.08-.19,0A12,12,0,0,1,17.6,34c.59-5.23,2.71-8,5.52-9.61,3-1.7,8.67-2.16,10.91-2.92a12.09,12.09,0,0,0,2-.88A8.2,8.2,0,0,0,37.53,19.54Z"/><g class="cls-4"><rect class="cls-5" x="-7.96" y="49.94" width="15.61" height="15.61" rx="1.69" transform="translate(-40.88 16.8) rotate(-45)"/><rect class="cls-5" x="40.04" y="49.94" width="15.61" height="15.61" rx="1.69" transform="translate(-26.82 50.74) rotate(-45)"/><rect class="cls-5" x="16.04" y="49.94" width="15.61" height="15.61" rx="1.69" transform="translate(-33.85 33.77) rotate(-45)"/></g></svg>