<svg id="Camada_1" data-name="Camada 1" xmlns="http://www.w3.org/2000/svg" xmlns:xlink="http://www.w3.org/1999/xlink" viewBox="0 0 48 48"><defs><style>.cls-1{fill:#fff;}.cls-2{fill:none;}.cls-3{clip-path:url(#clip-path);}.cls-4{clip-path:url(#clip-path-2);}.cls-5{fill:#333;}</style><clipPath id="clip-path"><rect class="cls-1" x="0.02" y="55" width="48" height="48"/></clipPath><clipPath id="clip-path-2"><rect class="cls-2" x="0.02" width="48" height="48"/></clipPath></defs><title>Pattern1-escuroCatarco</title><rect class="cls-1" x="0.02" y="55" width="48" height="48"/><g class="cls-3"><rect class="cls-1" x="-7.78" y="47.19" width="15.61" height="15.61" rx="1.69" transform="translate(-38.88 16.13) rotate(-45)"/><rect class="cls-1" x="40.22" y="47.19" width="15.61" height="15.61" rx="1.69" transform="translate(-24.82 50.07) rotate(-45)"/><rect class="cls-1" x="16.22" y="47.19" width="15.61" height="15.61" rx="1.69" transform="translate(-31.85 33.1) rotate(-45)"/></g><g class="cls-4"><rect class="cls-5" x="16.22" y="40.19" width="15.61" height="15.61" rx="1.69" transform="translate(-26.9 31.05) rotate(-45)"/><rect class="cls-5" x="4.22" y="28.19" width="15.61" height="15.61" rx="1.69" transform="translate(-21.93 19.05) rotate(-45)"/><rect class="cls-5" x="28.22" y="28.19" width="15.61" height="15.61" rx="1.69" transform="translate(-14.9 36.02) rotate(-45)"/><rect class="cls-5" x="16.22" y="16.19" width="15.61" height="15.61" rx="1.69" transform="translate(-9.93 24.02) rotate(-45)"/><rect class="cls-5" x="40.22" y="40.19" width="15.61" height="15.61" rx="1.69" transform="translate(-19.88 48.02) rotate(-45)"/><rect class="cls-5" x="-7.78" y="40.19" width="15.61" height="15.61" rx="1.69" transform="translate(-33.93 14.08) rotate(-45)"/><rect class="cls-5" x="-7.78" y="16.19" width="15.61" height="15.61" rx="1.69" transform="translate(-16.96 7.05) rotate(-45)"/><rect class="cls-5" x="4.22" y="4.19" width="15.61" height="15.61" rx="1.69" transform="translate(-4.96 12.02) rotate(-45)"/><rect class="cls-5" x="-7.78" y="-7.81" width="15.61" height="15.61" rx="1.69" transform="translate(0.01 0.02) rotate(-45)"/><rect class="cls-5" x="40.22" y="16.19" width="15.61" height="15.61" rx="1.69" transform="translate(-2.9 40.99) rotate(-45)"/><rect class="cls-5" x="28.22" y="4.19" width="15.61" height="15.61" rx="1.69" transform="translate(2.07 28.99) rotate(-45)"/><rect class="cls-5" x="40.22" y="-7.81" width="15.61" height="15.61" rx="1.69" transform="translate(14.07 33.96) rotate(-45)"/><rect class="cls-5" x="16.22" y="-7.81" width="15.61" height="15.61" rx="1.69" transform="translate(7.04 16.99) rotate(-45)"/></g></svg>