<svg id="Camada_1" data-name="Camada 1" xmlns="http://www.w3.org/2000/svg" xmlns:xlink="http://www.w3.org/1999/xlink" viewBox="0 0 48 48"><defs><style>.cls-1{fill:none;}.cls-2{clip-path:url(#clip-path);}.cls-3{fill:#333;}.cls-4{fill:#0cb49a;}</style><clipPath id="clip-path"><rect class="cls-1" width="48" height="48"/></clipPath></defs><title>Pattern2Catarco</title><g class="cls-2"><rect class="cls-3" x="16.19" y="40.19" width="15.61" height="15.61" rx="1.69" transform="translate(-26.91 31.03) rotate(-45)"/><rect class="cls-3" x="4.19" y="28.19" width="15.61" height="15.61" rx="1.69" transform="translate(-21.94 19.03) rotate(-45)"/><rect class="cls-3" x="28.19" y="28.19" width="15.61" height="15.61" rx="1.69" transform="translate(-14.91 36) rotate(-45)"/><rect class="cls-3" x="16.19" y="16.19" width="15.61" height="15.61" rx="1.69" transform="translate(-9.94 24) rotate(-45)"/><rect class="cls-3" x="40.19" y="40.19" width="15.61" height="15.61" rx="1.69" transform="translate(-19.88 48) rotate(-45)"/><rect class="cls-3" x="-7.81" y="40.19" width="15.61" height="15.61" rx="1.69" transform="translate(-33.94 14.06) rotate(-45)"/><rect class="cls-3" x="-7.81" y="16.19" width="15.61" height="15.61" rx="1.69" transform="translate(-16.97 7.03) rotate(-45)"/><rect class="cls-3" x="4.19" y="4.19" width="15.61" height="15.61" rx="1.69" transform="translate(-4.97 12) rotate(-45)"/><rect class="cls-3" x="-7.81" y="-7.81" width="15.61" height="15.61" rx="1.69" transform="rotate(-45)"/><rect class="cls-3" x="40.19" y="16.19" width="15.61" height="15.61" rx="1.69" transform="translate(-2.91 40.97) rotate(-45)"/><rect class="cls-3" x="28.19" y="4.19" width="15.61" height="15.61" rx="1.69" transform="translate(2.06 28.97) rotate(-45)"/><rect class="cls-3" x="40.19" y="-7.81" width="15.61" height="15.61" rx="1.69" transform="translate(14.06 33.94) rotate(-45)"/><rect class="cls-3" x="16.19" y="-7.81" width="15.61" height="15.61" rx="1.69" transform="translate(7.03 16.97) rotate(-45)"/><path class="cls-4" d="M31.11,18.2s-.06.51-.37,2.2c-.06.33-.12.67-.19,1a8.54,8.54,0,0,1-.68,2.17,5.92,5.92,0,0,1-1.21,1.64,5.8,5.8,0,0,1-2.49,1.44l-.07,0-.12,0-.16.05-.1,0a6.15,6.15,0,0,1-1.43.16,6.29,6.29,0,0,1-3.63-1.15c.31-2.74,1.42-4.22,2.89-5s4.55-1.14,5.73-1.53a6.37,6.37,0,0,0,1-.46A4.48,4.48,0,0,0,31.11,18.2Z"/></g></svg>