<svg id="Camada_1" data-name="Camada 1" xmlns="http://www.w3.org/2000/svg" viewBox="0 0 48 48"><defs><style>.cls-1{fill:#fff;}.cls-2{fill:#0cb49a;}</style></defs><title>simbolo-brancoCatarco</title><path class="cls-1" d="M46.85,21.22,26.78,1.15a3.94,3.94,0,0,0-5.56,0L1.15,21.22a3.94,3.94,0,0,0,0,5.56L21.22,46.85a3.94,3.94,0,0,0,5.56,0L46.85,26.78A3.94,3.94,0,0,0,46.85,21.22ZM24.4,36.15h0a11.92,11.92,0,0,0,2.76-.32l.2,0,.33-.09.23-.07.13,0c.39-.12.77-.25,1.14-.4A11.92,11.92,0,0,1,24.4,36.15ZM34.13,20.5a22.06,22.06,0,0,1-2.54.62A7.8,7.8,0,1,0,18.3,29a18.39,18.39,0,0,0-1.14,4.75A12,12,0,1,1,35.63,19.85,11.83,11.83,0,0,1,34.13,20.5Z"/><path class="cls-2" d="M37.4,19.5s-.12,1-.72,4.2c-.11.64-.23,1.27-.35,1.9A16,16,0,0,1,35,29.75a11,11,0,0,1-2.29,3.12A10.87,10.87,0,0,1,28,35.61l-.13,0-.23.07-.31.08-.19.05a12.1,12.1,0,0,1-2.71.3A12,12,0,0,1,17.47,34c.59-5.23,2.71-8,5.52-9.61,3-1.7,8.66-2.16,10.91-2.92a11.58,11.58,0,0,0,2-.88A8.55,8.55,0,0,0,37.4,19.5Z"/></svg>