<svg id="Camada_1" data-name="Camada 1" xmlns="http://www.w3.org/2000/svg" viewBox="0 0 48 48"><defs><style>.cls-1{fill:#333;}</style></defs><title>simbolo-escuroCatarco</title><path class="cls-1" d="M46.85,21.22,26.78,1.15a3.94,3.94,0,0,0-5.56,0L1.15,21.22a3.94,3.94,0,0,0,0,5.56L21.22,46.85a3.94,3.94,0,0,0,5.56,0L46.85,26.78A3.94,3.94,0,0,0,46.85,21.22ZM12.37,24.13a12,12,0,0,1,23.26-4.28,11.83,11.83,0,0,1-1.5.65,22.06,22.06,0,0,1-2.54.62A7.8,7.8,0,1,0,18.3,29a18.39,18.39,0,0,0-1.14,4.75A12,12,0,0,1,12.37,24.13Zm24.31-.43c-.11.64-.23,1.27-.35,1.9A16,16,0,0,1,35,29.75a11,11,0,0,1-2.29,3.12A10.89,10.89,0,0,1,28,35.6H28l-.13,0-.23.07-.31.08-.19.05-.14,0c-.25.06-.51.09-.77.13l-.49.08a11.38,11.38,0,0,1-1.31.07h0A12,12,0,0,1,17.47,34c.59-5.23,2.71-8,5.52-9.61,3-1.7,8.66-2.16,10.91-2.92a11.58,11.58,0,0,0,2-.88A8.55,8.55,0,0,0,37.4,19.5S37.28,20.48,36.68,23.7Z"/></svg>